<svg width="160" height="64" viewBox="0 0 160 64" fill="none" xmlns="http://www.w3.org/2000/svg">
  <rect width="160" height="64" rx="20" fill="white"/>
  <circle cx="32" cy="32" r="18" fill="#25D366"/>
  <path d="M24.7 44L27.1 37.6C25.9 35.7 25.4 33.5 25.7 31.3C26.4 26.4 30.5 22.6 35.4 22.2C38 22 40.5 22.8 42.5 24.5C44.5 26.2 45.8 28.6 46.1 31.2C46.7 36.6 42.7 41.5 37.3 42.1C35.2 42.3 33.1 41.9 31.2 41L24.7 44Z" fill="white"/>
  <path d="M34.3 27.6H33.1C32.7 27.6 32.2 27.9 32 28.4C31.5 29.5 31 30.9 31.1 32.3C31.4 34.8 33.2 37.1 35.4 38.7C36.5 39.5 37.8 40.1 39.2 40.2C40.3 40.3 41.3 39.9 42.1 39.2C42.5 38.9 42.7 38.4 42.5 37.9L42 36.5C41.8 36 41.2 35.8 40.7 36L38.8 36.8C38.5 36.9 38.2 36.9 37.9 36.8C36.5 36.2 35.4 35.1 34.7 33.7C34.6 33.4 34.6 33 34.7 32.8L35.5 30.9C35.7 30.4 35.5 29.8 35.1 29.6L33.7 29C33.7 28.9 34.3 27.6 34.3 27.6Z" fill="#25D366"/>
  <text x="64" y="39" fill="#1F2937" font-size="20" font-family="Arial, Helvetica, sans-serif" font-weight="700">WhatsApp</text>
</svg>
